<svg xmlns="http://www.w3.org/2000/svg" width="1200" height="700" viewBox="0 0 1200 700" role="img" aria-label="Terminal Space Shooter screenshot">
  <defs>
    <linearGradient id="bg" x1="0" y1="0" x2="0" y2="1">
      <stop offset="0%" stop-color="#0b1220"/>
      <stop offset="100%" stop-color="#03060f"/>
    </linearGradient>
    <filter id="softGlow" x="-50%" y="-50%" width="200%" height="200%">
      <feGaussianBlur stdDeviation="2" result="blur"/>
      <feMerge>
        <feMergeNode in="blur"/>
        <feMergeNode in="SourceGraphic"/>
      </feMerge>
    </filter>
  </defs>

  <rect width="1200" height="700" fill="#0f172a"/>
  <rect x="70" y="60" width="1060" height="580" rx="16" fill="url(#bg)" stroke="#334155" stroke-width="2"/>

  <text x="95" y="105" fill="#22c55e" font-family="Menlo, Monaco, Consolas, monospace" font-size="26" font-weight="700">
    Score: 420   Lives: 4   Enemy speed: 58%   Q: Quit
  </text>

  <g fill="#ef4444" font-family="Menlo, Monaco, Consolas, monospace" font-size="34" font-weight="700" filter="url(#softGlow)">
    <text x="1030" y="180">&lt;</text>
    <text x="960" y="230">&lt;</text>
    <text x="900" y="280">&lt;</text>
    <text x="980" y="350">&lt;</text>
    <text x="870" y="430">&lt;</text>
    <text x="1010" y="500">&lt;</text>
  </g>

  <g fill="#facc15" font-family="Menlo, Monaco, Consolas, monospace" font-size="30" font-weight="700" filter="url(#softGlow)">
    <text x="220" y="280">|</text>
    <text x="260" y="280">|</text>
    <text x="300" y="280">|</text>
    <text x="340" y="280">|</text>
    <text x="380" y="280">|</text>
  </g>

  <g fill="#22d3ee" font-family="Menlo, Monaco, Consolas, monospace" font-size="34" font-weight="700" filter="url(#softGlow)">
    <text x="140" y="246">&gt;</text>
    <text x="140" y="280">&gt;</text>
    <text x="140" y="314">&gt;</text>
    <text x="140" y="348">&gt;</text>
    <text x="140" y="382">&gt;</text>
    <text x="178" y="280">=</text>
    <text x="178" y="314">=</text>
    <text x="178" y="348">=</text>
    <text x="214" y="280">]</text>
    <text x="214" y="314">]</text>
    <text x="214" y="348">]</text>
  </g>

  <g fill="#94a3b8">
    <circle cx="160" cy="160" r="1.5"/>
    <circle cx="240" cy="200" r="1.5"/>
    <circle cx="320" cy="540" r="1.5"/>
    <circle cx="460" cy="140" r="1.5"/>
    <circle cx="540" cy="420" r="1.5"/>
    <circle cx="640" cy="240" r="1.5"/>
    <circle cx="760" cy="520" r="1.5"/>
    <circle cx="860" cy="170" r="1.5"/>
    <circle cx="920" cy="300" r="1.5"/>
    <circle cx="1080" cy="420" r="1.5"/>
  </g>

  <text x="95" y="620" fill="#64748b" font-family="Menlo, Monaco, Consolas, monospace" font-size="20">
    terminal-space-shooter preview
  </text>
</svg>
