<svg xmlns="http://www.w3.org/2000/svg" width="1200" height="700" viewBox="0 0 1200 700" role="img" aria-label="Terminal Space Shooter realistic terminal battle screenshot">
  <rect width="1200" height="700" fill="#111827"/>
  <rect x="54" y="38" width="1092" height="624" rx="14" fill="#0b1020" stroke="#374151" stroke-width="2"/>
  <circle cx="88" cy="64" r="7" fill="#ef4444"/>
  <circle cx="112" cy="64" r="7" fill="#f59e0b"/>
  <circle cx="136" cy="64" r="7" fill="#22c55e"/>

  <g font-family="Menlo, Monaco, Consolas, monospace" font-size="20" font-weight="700">
    <text x="80" y="104" fill="#22c55e"> Score: 2640   Lives: 4   Power: 3   Difficulty: Hard x1.40   Gun: Cannon [Left/Right]   Boost: ON   Shield: RDY [X] </text>
    <text x="80" y="132" fill="#22d3ee"> Guns: Left/Right cycle   Rapid   Spread   Cannon   Shoot [$] crates for Vigor/Power </text>
    <text x="80" y="160" fill="#eab308"> Status: BOSS WAVE INBOUND </text>
    <text x="80" y="188" fill="#d946ef"> Titan Boost: 3.7s   Damage x2.0 </text>
    <text x="80" y="216" fill="#ef4444"> BOSS Dreadnought HP: 11 </text>
  </g>

  <g fill="#d1d5db">
    <circle cx="120" cy="186" r="1.2"/>
    <circle cx="198" cy="238" r="1"/>
    <circle cx="304" cy="174" r="1.2"/>
    <circle cx="412" cy="262" r="1.1"/>
    <circle cx="538" cy="190" r="1.3"/>
    <circle cx="688" cy="232" r="1.1"/>
    <circle cx="830" cy="176" r="1.2"/>
    <circle cx="1026" cy="222" r="1"/>
    <circle cx="1092" cy="306" r="1.2"/>
    <circle cx="960" cy="556" r="1.2"/>
    <circle cx="744" cy="614" r="1.1"/>
    <circle cx="520" cy="576" r="1.1"/>
    <circle cx="286" cy="620" r="1.2"/>
  </g>

  <g font-family="Menlo, Monaco, Consolas, monospace" font-size="31" font-weight="700" fill="#06b6d4">
    <text x="92" y="288">&gt;</text>
    <text x="92" y="320">&gt;</text>
    <text x="92" y="352">&gt;</text>
    <text x="92" y="384">&gt;</text>
    <text x="92" y="416">&gt;</text>
    <text x="122" y="320">=</text>
    <text x="122" y="352">=</text>
    <text x="122" y="384">=</text>
    <text x="150" y="320">]</text>
    <text x="150" y="352">]</text>
    <text x="150" y="384">]</text>
    <text x="76" y="256" fill="#facc15">+</text>
    <text x="76" y="448" fill="#facc15">+</text>
    <text x="92" y="256" fill="#facc15">&gt;</text>
    <text x="92" y="448" fill="#facc15">&gt;</text>
    <text x="122" y="256" fill="#facc15">/</text>
    <text x="122" y="448" fill="#facc15">\</text>
    <text x="150" y="256" fill="#facc15">[</text>
    <text x="150" y="448" fill="#facc15">[</text>
    <text x="178" y="256" fill="#facc15">}</text>
    <text x="178" y="448" fill="#facc15">}</text>
    <text x="206" y="352" fill="#facc15">]</text>
  </g>

  <g font-family="Menlo, Monaco, Consolas, monospace" font-size="28" font-weight="700" fill="#facc15">
    <text x="198" y="286">|</text>
    <text x="226" y="286">|</text>
    <text x="254" y="286">|</text>
    <text x="282" y="286">|</text>
    <text x="310" y="286">|</text>
    <text x="208" y="350">|</text>
    <text x="236" y="350">|</text>
    <text x="264" y="350">|</text>
    <text x="292" y="350">|</text>
    <text x="320" y="350">|</text>
    <text x="198" y="414">|</text>
    <text x="226" y="414">|</text>
    <text x="254" y="414">|</text>
    <text x="282" y="414">|</text>
    <text x="310" y="414">|</text>
  </g>

  <g font-family="Menlo, Monaco, Consolas, monospace" font-size="31" font-weight="700">
    <text x="752" y="228" fill="#ef4444">&lt;</text>
    <text x="844" y="272" fill="#2563eb">@</text>
    <text x="952" y="238" fill="#a855f7">#</text>
    <text x="996" y="238" fill="#a78bfa" font-size="19">4</text>
    <text x="812" y="344" fill="#ef4444">&lt;</text>
    <text x="930" y="392" fill="#2563eb">@</text>
    <text x="1018" y="392" fill="#93c5fd" font-size="19">2</text>
    <text x="734" y="468" fill="#a855f7">#</text>
    <text x="778" y="468" fill="#c4b5fd" font-size="19">3</text>
    <text x="986" y="504" fill="#ef4444">&lt;</text>
    <text x="894" y="564" fill="#2563eb">@</text>
    <text x="1080" y="326" fill="#ef4444">&lt;</text>
  </g>

  <g font-family="Menlo, Monaco, Consolas, monospace" font-size="30" font-weight="700">
    <text x="792" y="520" fill="#a855f7">[</text>
    <text x="820" y="520" fill="#a855f7">#</text>
    <text x="848" y="520" fill="#facc15">O</text>
    <text x="876" y="520" fill="#a855f7">#</text>
    <text x="904" y="520" fill="#a855f7">]</text>
    <text x="792" y="552" fill="#a855f7">[</text>
    <text x="820" y="552" fill="#a855f7">#</text>
    <text x="848" y="552" fill="#facc15">#</text>
    <text x="876" y="552" fill="#a855f7">#</text>
    <text x="904" y="552" fill="#a855f7">]</text>
    <text x="926" y="552" fill="#fca5a5" font-size="19">11</text>
  </g>

  <g font-family="Menlo, Monaco, Consolas, monospace" font-size="28" font-weight="700">
    <text x="646" y="270" fill="#a855f7">o</text>
    <text x="674" y="270" fill="#2563eb">*</text>
    <text x="702" y="270" fill="#facc15">.</text>
    <text x="646" y="298" fill="#2563eb">*</text>
    <text x="674" y="298" fill="#2563eb">@</text>
    <text x="702" y="298" fill="#2563eb">*</text>
    <text x="646" y="326" fill="#facc15">.</text>
    <text x="674" y="326" fill="#2563eb">*</text>
    <text x="702" y="326" fill="#a855f7">o</text>
  </g>

  <g font-family="Menlo, Monaco, Consolas, monospace" font-size="24" font-weight="700">
    <text x="560" y="334" fill="#ef4444">~</text>
    <text x="532" y="366" fill="#ef4444">~</text>
    <text x="560" y="398" fill="#ef4444">~</text>
    <text x="392" y="288" fill="#facc15">@</text>
    <text x="420" y="288" fill="#facc15">@</text>
    <text x="448" y="288" fill="#facc15">@</text>
  </g>

  <g font-family="Menlo, Monaco, Consolas, monospace" font-size="28" font-weight="700">
    <text x="864" y="476" fill="#facc15">*</text>
    <text x="892" y="476" fill="#ef4444">*</text>
    <text x="920" y="476" fill="#facc15">*</text>
    <text x="892" y="448" fill="#facc15">+</text>
    <text x="892" y="504" fill="#ef4444">+</text>
    <text x="864" y="504" fill="#facc15">.</text>
    <text x="920" y="504" fill="#facc15">.</text>
  </g>

  <g font-family="Menlo, Monaco, Consolas, monospace" font-size="22" font-weight="700">
    <text x="82" y="590" fill="#f59e0b">warning: dreadnought volley detected on triple lanes</text>
    <text x="82" y="620" fill="#9ca3af">terminal-space-shooter preview — boss wave + titan boost battle screen</text>
  </g>
</svg>
